      <svg
        version="1.1"
        id="cssLogo"
        width="80px"
        xmlns="http://www.w3.org/2000/svg"
        xmlns:xlink="http://www.w3.org/1999/xlink"
        x="0px"
        y="0px"
        viewBox="0 0 1000 285.014"
        enable-background="new 0 0 1000 285.014"
        xml:space="preserve"
      >
        <path
          d="M541.816,184.201c0,30.971-38.541,29.133-38.541,29.133h-38.54v-55.963h38.54
           C542.939,157.104,541.816,184.201,541.816,184.201 M464.736,72.022h29.368c30.496,1.611,29.345,24.316,29.345,24.316
           c0,28.216-33.721,28.676-33.721,28.676h-24.992V72.022z M534.688,136.019c0,0,26.381-11.241,26.146-41.057
           c0,0,4.012-48.864-60.729-54.824h-71.838v204.849h82.343c0,0,68.803,0.205,68.803-57.799
           C579.411,187.188,581.038,147.716,534.688,136.019 M348.773,0h302.454v285.013H348.773V0z M193.041,184.201
           c0,30.971-38.541,29.133-38.541,29.133h-38.543v-55.963H154.5C194.166,157.104,193.041,184.201,193.041,184.201 M115.957,72.022
           h29.374c30.497,1.611,29.343,24.316,29.343,24.316c0,28.216-33.719,28.676-33.719,28.676h-24.998V72.022z M185.915,136.019
           c0,0,26.384-11.241,26.147-41.057c0,0,4.009-48.864-60.732-54.824H79.489v204.849h82.349c0,0,68.801,0.205,68.801-57.799
           C230.639,187.188,232.26,147.716,185.915,136.019 M0,0h302.453v285.013H0V0z M697.547,285.012H1000V0H697.547V285.012z M0,0h302.453
           v285.013H0V0z M348.773,0h302.454v285.013H348.773V0z"
        />
        <rect
          x="45.836"
          y="43.236"
          fill="none"
          width="210.781"
          height="198.54"
        />
        <text
          transform="matrix(1 0 0 1 46.0879 241.0496)"
          fill="#FFFFFF"
          font-family="'GillSans-SemiBold'"
          font-size="290"
        >
          C
        </text>
        <rect
          x="421.963"
          y="43.468"
          fill="none"
          width="156.074"
          height="198.076"
        />
        <text
          transform="matrix(1 0 0 1 422.5439 241.28)"
          fill="#FFFFFF"
          font-family="'GillSans-SemiBold'"
          font-size="290"
        >
          S
        </text>
        <rect
          x="770.736"
          y="43.468"
          fill="none"
          width="156.072"
          height="198.076"
        />
        <text
          transform="matrix(1 0 0 1 771.3174 241.28)"
          fill="#FFFFFF"
          font-family="'GillSans-SemiBold'"
          font-size="290"
        >
          S
        </text>
      </svg>